<svg width="736" height="736" viewBox="0 0 736 736" fill="none" xmlns="http://www.w3.org/2000/svg">
<path d="M559.954 223.981V155.837L367.997 99.3666L176.04 155.837V223.981C176.03 232.466 172.655 240.6 166.656 246.599C160.656 252.598 152.522 255.973 144.038 255.983H101.105C106.628 299.38 116.611 342.091 130.896 383.44C175.133 509.21 254.88 594.042 367.965 635.622C457.01 602.605 602.769 510.148 634.958 255.982H591.956C583.472 255.971 575.338 252.596 569.339 246.597C563.34 240.598 559.965 232.465 559.954 223.981ZM544.062 415.988C544.063 418.089 543.65 420.171 542.846 422.112C542.043 424.054 540.864 425.818 539.378 427.304C537.892 428.79 536.127 429.969 534.186 430.772C532.244 431.576 530.163 431.989 528.061 431.988H432.055V527.992C432.056 530.093 431.643 532.174 430.839 534.116C430.036 536.058 428.857 537.822 427.371 539.308C425.885 540.794 424.121 541.973 422.179 542.776C420.237 543.58 418.156 543.993 416.054 543.992H320.048C317.947 543.992 315.866 543.579 313.924 542.775C311.983 541.971 310.219 540.792 308.733 539.307C307.247 537.821 306.068 536.057 305.264 534.115C304.46 532.174 304.047 530.093 304.047 527.992V431.989H208.042C205.94 431.989 203.859 431.576 201.918 430.772C199.976 429.968 198.212 428.789 196.726 427.304C195.24 425.818 194.062 424.054 193.258 422.112C192.454 420.171 192.04 418.09 192.04 415.989V319.984C192.04 317.883 192.454 315.802 193.258 313.86C194.062 311.919 195.24 310.155 196.726 308.669C198.212 307.183 199.976 306.005 201.918 305.201C203.859 304.397 205.94 303.983 208.042 303.984H304.048V207.98C304.048 205.879 304.461 203.798 305.265 201.856C306.069 199.915 307.248 198.151 308.734 196.665C310.22 195.179 311.984 194.001 313.925 193.197C315.867 192.393 317.948 191.979 320.049 191.98H416.055C418.156 191.979 420.238 192.392 422.179 193.195C424.121 193.999 425.886 195.178 427.372 196.664C428.858 198.15 430.036 199.914 430.84 201.856C431.644 203.797 432.057 205.879 432.056 207.98V303.984H528.062C530.163 303.983 532.244 304.396 534.186 305.199C536.128 306.003 537.892 307.182 539.379 308.668C540.865 310.154 542.043 311.918 542.847 313.86C543.651 315.801 544.064 317.883 544.063 319.984L544.062 415.988ZM416.054 335.985H512.06V399.987H416.054C413.953 399.986 411.872 400.399 409.93 401.203C407.988 402.006 406.223 403.185 404.737 404.671C403.251 406.157 402.073 407.921 401.269 409.863C400.465 411.805 400.052 413.886 400.053 415.987V511.991H336.049V415.988C336.05 413.887 335.636 411.806 334.832 409.864C334.028 407.923 332.85 406.159 331.364 404.673C329.878 403.187 328.114 402.008 326.172 401.205C324.231 400.401 322.15 399.987 320.048 399.988H224.043V335.985H320.048C322.149 335.985 324.23 335.572 326.172 334.768C328.113 333.964 329.877 332.786 331.363 331.3C332.849 329.814 334.028 328.05 334.832 326.109C335.636 324.167 336.049 322.086 336.049 319.985V223.981H400.053V319.984C400.052 322.086 400.465 324.167 401.269 326.109C402.072 328.051 403.251 329.815 404.737 331.301C406.223 332.787 407.988 333.966 409.929 334.769C411.871 335.573 413.953 335.986 416.054 335.985ZM726.87 169.557C723.889 166.51 720.327 164.093 716.395 162.447C712.463 160.802 708.241 159.962 703.978 159.978H655.96V107.945C655.93 101.042 653.681 94.3322 649.544 88.8061C645.408 83.2799 639.604 79.2308 632.989 77.257L372.817 0.722281C369.44 -0.305857 365.823 -0.234759 362.488 0.925322L103.004 77.2564C96.3886 79.2289 90.5836 83.2777 86.447 88.8041C82.3105 94.3305 80.0619 101.041 80.0338 107.944V159.978H32.0152C27.7687 159.963 23.562 160.797 19.6418 162.429C15.7216 164.062 12.1667 166.461 9.18543 169.485C6.20419 172.509 3.8566 176.098 2.28026 180.041C0.703916 183.984 -0.0694614 188.202 0.00545423 192.448C1.34145 264.966 25.0851 631.59 362.34 734.984C364.13 735.66 366.028 736.004 367.942 736C367.981 735.984 367.989 735.984 368.059 736C369.972 736.004 371.871 735.66 373.661 734.984C710.963 631.59 734.667 264.951 735.996 192.432C736.08 188.203 735.315 184 733.748 180.071C732.181 176.142 729.842 172.567 726.87 169.557ZM373.317 667.717C369.871 668.941 366.11 668.946 362.66 667.733C237.145 623.481 149.015 531.399 100.707 394.066C83.7023 344.708 72.4655 293.548 67.2207 241.607C66.9935 239.381 67.2359 237.131 67.9323 235.004C68.6286 232.877 69.7633 230.92 71.2632 229.259C72.763 227.598 74.5946 226.27 76.6397 225.361C78.6847 224.452 80.8977 223.982 83.1357 223.981H144.038V155.837C144.068 148.932 146.318 142.219 150.455 136.69C154.593 131.161 160.399 127.11 167.016 125.133L363.481 67.3498C366.428 66.4748 369.565 66.4748 372.512 67.3498L568.985 125.149C575.6 127.123 581.404 131.172 585.541 136.698C589.677 142.224 591.926 148.934 591.956 155.837V223.981H652.897C655.136 223.982 657.351 224.453 659.397 225.364C661.443 226.274 663.275 227.603 664.776 229.266C666.276 230.928 667.411 232.887 668.108 235.015C668.804 237.143 669.047 239.394 668.82 241.622C658.491 341.954 609.035 584.323 373.317 667.717Z" fill="#4A90E2"/>
</svg>
